<svg width="18" height="20" viewBox="0 0 18 20" fill="none" xmlns="http://www.w3.org/2000/svg">
<path d="M17.42 8.17995L9.70999 0.299949C9.61703 0.20622 9.50643 0.131826 9.38457 0.0810573C9.26271 0.0302886 9.132 0.00415039 8.99999 0.00415039C8.86798 0.00415039 8.73728 0.0302886 8.61542 0.0810573C8.49356 0.131826 8.38296 0.20622 8.28999 0.299949L0.579993 8.18995C0.39343 8.37802 0.246088 8.60127 0.146521 8.84676C0.0469548 9.09224 -0.00285185 9.35506 -6.70605e-06 9.61995V17.9999C-0.00078153 18.5119 0.194766 19.0046 0.546368 19.3766C0.897969 19.7487 1.37885 19.9718 1.88999 19.9999H4.99999V10.9999C4.99999 10.7347 5.10535 10.4804 5.29289 10.2928C5.48042 10.1053 5.73478 9.99995 5.99999 9.99995H12C12.2652 9.99995 12.5196 10.1053 12.7071 10.2928C12.8946 10.4804 13 10.7347 13 10.9999V19.9999H16.11C16.6211 19.9718 17.102 19.7487 17.4536 19.3766C17.8052 19.0046 18.0008 18.5119 18 17.9999V9.61995C18.0008 9.08288 17.7928 8.56653 17.42 8.17995Z" fill="#397DF6"/>
</svg>
